<svg xmlns="http://www.w3.org/2000/svg" version="1.1" xmlns:xlink="http://www.w3.org/1999/xlink" viewBox="0 0 700 700" style="overflow: hidden; display: block;" width="700" height="700"><defs><linearGradient id="two-3" x1="350" y1="-350" x2="350" y2="350" spreadMethod="pad" gradientUnits="userSpaceOnUse"><stop offset="0%" stop-color="hsl(1.4, 100%, 67%)" stop-opacity="1"></stop><stop offset="100%" stop-color="hsl(167, 52%, 78%)" stop-opacity="1"></stop></linearGradient></defs><g id="two-0" transform="matrix(1 0 0 1 0 0)" opacity="1"><path transform="matrix(1 0 0 1 350 350)" id="two-273" d="M 263.588657 109.181996 C 257.462121 153.507914 271.754121 208.755154 243.245161 243.245161 C 215.52902 276.77602 161.967682 280.647131 118.960557 287.196192 C 80.123413 293.110254 38.839198 288.613178 0 282.712617 C -35.592458 277.305309 -70.11066 261.778024 -105.31761 254.2592 C -147.334059 245.286134 -199.937666 260.211275 -233.911391 233.91139 C -266.950311 208.335162 -274.92473 158.496113 -284.403422 117.803754 C -293.232702 79.89935 -285.068343 38.604909 -290.004029 0 C -295.629612 -44.000994 -331.854089 -89.548133 -317.606919 -131.557094 C -303.623671 -172.787859 -254.066186 -193.837574 -217.557963 -217.557963 C -184.936253 -238.753178 -146.171855 -251.359 -111.017209 -268.019251 C -74.377565 -285.383262 -40.544383 -320.308598 -0.000001 -320.662812 C 40.515079 -321.01677 73.80611 -283.970873 111.83914 -270.003571 C 151.464835 -255.451376 207.440087 -266.950401 234.826338 -234.826339 C 263.080878 -201.683774 242.55762 -146.601251 250.585249 -103.795809 C 257.103199 -69.040374 274.963908 -35.290088 277.207494 -0.000001 C 279.511224 36.236113 268.559907 73.214653 263.588657 109.181996 Z " fill="#fff5ed" stroke="undefined" stroke-width="1" stroke-opacity="1" fill-opacity="1" visibility="visible" stroke-linecap="butt" stroke-linejoin="miter" stroke-miterlimit="4"></path></g></svg>